<svg xmlns="http://www.w3.org/2000/svg" viewBox="0 0 2000 500" xmlns:bx="https://boxy-svg.com">
  <defs>
    <bx:export>
      <bx:file format="svg"></bx:file>
    </bx:export>
  </defs>
  <path style="stroke: rgb(255, 255, 255); fill: rgb(255, 255, 255);" d="M 106.985 371.951 L 131.092 332.189 C 131.092 332.189 140.267 344.428 151.126 344.425 C 161.985 344.422 166.745 339.038 177.007 321.627 C 189.526 300.387 264.165 166.375 305.814 122.209 C 322.689 103.604 330.933 98.927 346.907 98.731 C 362.881 98.535 368.803 104.29 374.539 110.312 C 380.987 117.081 395.869 151.28 393.182 162.076 C 388.483 156.589 370.016 142.969 364.266 144.49 C 358.994 145.885 355.875 149.415 350.556 155.211 C 345.237 161.007 342.486 165.628 336.738 174.168 C 328.436 186.504 215.532 350.123 199.835 370.577 C 188.431 386.73 172.336 400.517 158.027 405.184 C 143.718 409.849 137.517 409.505 128.068 402.759 C 118.62 396.013 115.955 392.401 106.985 371.951 Z"></path>
  <path style="stroke: rgb(255, 255, 255); fill: rgb(255, 255, 255);" d="M 124.752 123.591 C 112.292 140.325 107.188 152.244 105.343 164.092 L 131.567 182.896 C 143.037 169.173 153.198 176.431 166.259 187.986 C 179.32 199.541 289.254 356.069 296.63 367.585 C 307.126 383.971 325.511 403.95 342.752 405.059 C 359.406 406.13 372.018 391.851 385.785 370.056 L 373.548 327.696 C 362.257 337.644 354.134 344.294 345.434 339.788 C 336.734 335.282 327.21 323.206 322.152 315.774 C 322.152 315.774 215.453 164.104 203.088 147.844 C 194.466 135.1 185.937 126.269 179.282 117.932 C 170.56 110.404 164.205 107.532 151.823 107.774 C 139.441 108.016 131.279 114.825 124.752 123.591 Z"></path>
  <ellipse style="stroke: rgb(0, 0, 0); fill: rgb(0, 0, 0);" cx="359.7" cy="118" rx="7" ry="7"></ellipse>
  <text style="fill: rgb(255, 255, 255); font-family: Arial, sans-serif; font-size: 270px; white-space: pre;" x="-241.39" y="320">　[</text>
  <text style="fill: rgb(255, 255, 255); font-family: Arial, sans-serif; font-size: 270px; white-space: pre;" x="125.115" y="320">　]</text>
  <text style="fill: rgb(248, 248, 248); font-family: Arial, sans-serif; font-size: 262.207px; line-height: 274.193px; stroke-width: 0px; white-space: pre;" transform="matrix(1.035678, 0, 0, 1.067859, 27.199078, 26.169329)" x="516.957" y="304.887">MatrixTeam</text>
</svg>